<svg xmlns="http://www.w3.org/2000/svg" viewBox="0 0 50.62 50.62"><defs><style>.cls-1{fill:#fff;}</style></defs><g id="Layer_2" data-name="Layer 2"><g id="Layer_1-2" data-name="Layer 1"><path class="cls-1" d="M50.62,25.27A25.31,25.31,0,1,1,25.06,0h.5A25.3,25.3,0,0,1,50.62,25.27ZM11.16,34.13h7.92a14,14,0,0,0,2.52-.21A5.62,5.62,0,0,0,23.55,33a4.71,4.71,0,0,0,1.29-1.37,5.44,5.44,0,0,0,.79-2.81,4.89,4.89,0,0,0-.72-2.59,4.07,4.07,0,0,0-2-1.58,3.14,3.14,0,0,0,1.29-1A3.74,3.74,0,0,0,25.06,21a4.7,4.7,0,0,0-.79-2.67,5.44,5.44,0,0,0-4.61-1.87h-8.5ZM18.94,23.4H15.19V19.51h3.32a8.19,8.19,0,0,1,2.08.29,1.58,1.58,0,0,1,.94,1.66A1.58,1.58,0,0,1,20.81,23,3.57,3.57,0,0,1,18.94,23.4Zm1.8,7.35a4.18,4.18,0,0,1-1.8.28H15.19V26.35H19a3.83,3.83,0,0,1,1.73.29,1.89,1.89,0,0,1,1.15,1.87A2.23,2.23,0,0,1,20.74,30.75ZM27,27.36c0,2.38.58,4,1.87,5.12A7.18,7.18,0,0,0,33.34,34a6.1,6.1,0,0,0,4.75-1.8,4.35,4.35,0,0,0,1.23-2.31H35.93a2,2,0,0,1-.65.87,3,3,0,0,1-1.87.57,3.08,3.08,0,0,1-1.8-.5,3,3,0,0,1-1.3-2.67h9.22a19.63,19.63,0,0,0-.14-2.44,6.78,6.78,0,0,0-1-2.67,5.45,5.45,0,0,0-2.16-1.87,7.72,7.72,0,0,0-2.95-.58,6.14,6.14,0,0,0-4.54,1.73A7,7,0,0,0,27,27.36ZM29.67,19h7v-1.8h-7Zm6.41,7H30.39a4,4,0,0,1,.86-1.94,2.68,2.68,0,0,1,2-.72,3.15,3.15,0,0,1,1.94.65A3.07,3.07,0,0,1,36.08,26Z"/></g></g></svg>