<svg xmlns="http://www.w3.org/2000/svg" viewBox="0 0 50.62 50.62"><defs><style>.cls-1{fill:#fff;}</style></defs><g id="Layer_2" data-name="Layer 2"><g id="Layer_1-2" data-name="Layer 1"><path class="cls-1" d="M50.62,25.28A25.31,25.31,0,1,1,25.35,0C39.1-.14,50.48,11.23,50.62,25.28ZM11.52,15.05V35.57a3.53,3.53,0,0,0,3.53,3.53H35.57a3.53,3.53,0,0,0,3.53-3.53V15.05a3.54,3.54,0,0,0-3.53-3.53H15.05A3.54,3.54,0,0,0,11.52,15.05Zm23.4,20.88H15.7a1.13,1.13,0,0,1-1.16-1.08V23.19h2.6a6.28,6.28,0,0,0-.36,2.37,8.39,8.39,0,0,0,8.57,8.28,8.39,8.39,0,0,0,8.56-8.28,6.28,6.28,0,0,0-.36-2.37H36V34.85A1.1,1.1,0,0,1,34.92,35.93Zm-4-10.65a5.41,5.41,0,0,1-5.54,5.32,5.37,5.37,0,1,1,5.54-5.32ZM36,15.77v3A1.26,1.26,0,0,1,34.78,20H31.61a1.26,1.26,0,0,1-1.22-1.23v-3a1.25,1.25,0,0,1,1.22-1.22h3.17A1.25,1.25,0,0,1,36,15.77Z"/></g></g></svg>