<svg xmlns="http://www.w3.org/2000/svg" viewBox="0 0 50.62 50.55"><defs><style>.cls-1{fill:#fff;}</style></defs><g id="Layer_2" data-name="Layer 2"><g id="Layer_1-2" data-name="Layer 1"><path class="cls-1" d="M50.62,25.27A25.31,25.31,0,1,1,25.35,0,25.26,25.26,0,0,1,50.62,25.27ZM36.08,18.79a5.81,5.81,0,0,0,2.3-2.8A12.92,12.92,0,0,1,35,17.21a4.81,4.81,0,0,0-3.68-1.66,5.15,5.15,0,0,0-5.11,5.19,6.45,6.45,0,0,0,.14,1.15,14.41,14.41,0,0,1-10.58-5.4,5.35,5.35,0,0,0-.65,2.59,4.8,4.8,0,0,0,2.23,4.25,4.75,4.75,0,0,1-2.3-.58v.08a5.19,5.19,0,0,0,4,5,6.8,6.8,0,0,1-1.37.14,3.76,3.76,0,0,1-.86-.14,5.08,5.08,0,0,0,4.75,3.6,10.26,10.26,0,0,1-6.33,2.16H14a14.54,14.54,0,0,0,7.85,2.3c9.43,0,14.55-7.78,14.55-14.62v-.64A11.48,11.48,0,0,0,39,18,12.54,12.54,0,0,1,36.08,18.79Z"/></g></g></svg>